<svg width="574" height="573" viewBox="0 0 574 573" fill="none" xmlns="http://www.w3.org/2000/svg">
<path fill-rule="evenodd" clip-rule="evenodd" d="M400.557 273.785C418.36 267.566 433.386 255.262 442.979 239.05C450.665 225.298 454.226 207.377 448.271 184.773C435.468 136.732 400.319 119.359 346.851 140.697C333.847 145.886 307.914 161.113 300.357 188.425C294.095 211.059 302.438 234.002 315.1 253.808C334.829 284.578 366.301 285.337 400.557 273.785ZM302.059 188.887C309.197 162.01 334.447 146.685 347.21 141.594C395.627 122.281 432.997 134.535 446.087 185.343C451.795 207.243 448.346 224.593 440.887 237.884C431.58 253.571 417.027 265.477 399.791 271.505C366.637 282.715 336.175 282.332 317.009 252.596C304.605 233.406 296.198 210.959 302.059 188.887Z" fill="black"/>
<path fill-rule="evenodd" clip-rule="evenodd" d="M379.161 159.472C401.453 165.643 414.431 185.801 420.489 208.177C420.928 209.41 421.826 210.428 422.996 211.019C424.167 211.61 425.52 211.728 426.775 211.349C428.031 210.97 429.092 210.123 429.738 208.984C430.385 207.845 430.567 206.501 430.247 205.231C422.091 179.598 406.751 159.678 379.994 155.518C379.734 155.461 379.465 155.457 379.203 155.504C378.941 155.551 378.691 155.649 378.467 155.793C378.244 155.937 378.05 156.123 377.898 156.341C377.747 156.559 377.639 156.805 377.583 157.065C377.526 157.325 377.522 157.593 377.569 157.854C377.616 158.116 377.715 158.365 377.859 158.589C378.002 158.812 378.189 159.005 378.408 159.157C378.626 159.308 378.873 159.415 379.133 159.472H379.161Z" fill="black"/>
<path fill-rule="evenodd" clip-rule="evenodd" d="M387.358 84.5892C387.435 84.8277 387.603 85.0264 387.825 85.1431C388.047 85.2598 388.306 85.2851 388.547 85.2136C388.788 85.1422 388.991 84.9796 389.113 84.7607C389.235 84.5418 389.267 84.2839 389.201 84.042C384.382 63.1848 386.905 73.3613 381.535 53.0743C381.339 52.4751 380.917 51.9759 380.358 51.6827C379.799 51.3895 379.147 51.3254 378.542 51.5041C377.937 51.6829 377.425 52.0902 377.115 52.6397C376.806 53.1892 376.724 53.8374 376.886 54.4466C383.191 74.5159 379.988 64.4053 387.358 84.5892Z" fill="black"/>
<path fill-rule="evenodd" clip-rule="evenodd" d="M215.006 171.877C235.383 176.765 225.022 174.324 246.289 178.409C246.536 178.473 246.798 178.435 247.018 178.306C247.237 178.176 247.396 177.965 247.46 177.719C247.524 177.472 247.486 177.21 247.357 176.991C247.227 176.772 247.015 176.613 246.768 176.55C226.328 169.937 236.436 173.046 216.217 167.193C215.909 167.113 215.588 167.096 215.273 167.14C214.958 167.185 214.655 167.291 214.381 167.452C214.107 167.614 213.868 167.827 213.677 168.081C213.485 168.335 213.346 168.624 213.267 168.932C213.188 169.239 213.17 169.559 213.214 169.874C213.259 170.188 213.365 170.491 213.527 170.764C213.689 171.038 213.903 171.277 214.157 171.468C214.411 171.659 214.698 171.798 215.006 171.877Z" fill="black"/>
<path fill-rule="evenodd" clip-rule="evenodd" d="M408.582 83.2056C410.677 61.7983 410.134 72.4217 411.193 51.4041C411.216 51.0803 411.173 50.7553 411.067 50.4485C410.961 50.1416 410.794 49.8592 410.576 49.618C410.359 49.3768 410.095 49.1817 409.8 49.0444C409.506 48.907 409.187 48.8302 408.862 48.8185C408.537 48.8068 408.213 48.8604 407.909 48.9761C407.605 49.0919 407.328 49.2675 407.094 49.4924C406.859 49.7173 406.672 49.9869 406.544 50.2853C406.417 50.5837 406.35 50.9047 406.349 51.2293C405.913 72.3701 406.108 61.6207 406.659 83.1311C406.649 83.3856 406.741 83.6337 406.914 83.8206C407.087 84.0076 407.328 84.1182 407.583 84.1281C407.838 84.138 408.087 84.0463 408.274 83.8733C408.461 83.7003 408.572 83.4601 408.582 83.2056Z" fill="black"/>
<path fill-rule="evenodd" clip-rule="evenodd" d="M257.726 155.16C257.909 155.325 258.149 155.414 258.396 155.408C258.642 155.402 258.877 155.302 259.053 155.129C259.228 154.955 259.329 154.721 259.337 154.474C259.344 154.228 259.257 153.988 259.092 153.805C245.029 137.821 252.152 145.184 237.633 130.165C237.18 129.71 236.564 129.452 235.921 129.449C235.278 129.447 234.66 129.699 234.203 130.151C233.747 130.603 233.489 131.218 233.486 131.86C233.483 132.502 233.736 133.119 234.189 133.575C249.168 148.149 241.812 141.024 257.726 155.16Z" fill="black"/>
<path fill-rule="evenodd" clip-rule="evenodd" d="M147.495 107.764C146.984 105.329 144.7 104.739 142.231 104.899C141.392 104.954 140.583 105.234 139.89 105.711C139.197 106.187 138.646 106.841 138.295 107.605C137.945 108.368 137.807 109.212 137.897 110.047C137.987 110.882 138.302 111.677 138.808 112.348C142.117 116.144 149.963 113.208 147.495 107.764ZM140.484 108.512C140.675 108.104 140.965 107.749 141.327 107.48C141.689 107.211 142.112 107.036 142.559 106.97C144.209 106.558 145.845 106.518 146.577 108.071C147.664 113.102 138.584 112.683 140.484 108.512Z" fill="black"/>
<path fill-rule="evenodd" clip-rule="evenodd" d="M147.768 172.1C146.811 171.632 145.783 171.327 144.725 171.198C142.409 171.057 140.088 171.398 137.909 172.198C137.206 172.509 136.523 172.863 135.863 173.258C134.761 173.894 135.2 174.478 135.863 174.424C138.028 174.315 140.183 174.047 142.309 173.625C142.596 173.585 146.841 173.052 147.55 173.052C147.676 173.081 147.809 173.058 147.918 172.989C148.028 172.921 148.106 172.811 148.135 172.685C148.164 172.559 148.142 172.426 148.073 172.317C148.004 172.207 147.894 172.129 147.768 172.1Z" fill="black"/>
<path fill-rule="evenodd" clip-rule="evenodd" d="M167.78 170.467C167.656 170.496 167.549 170.572 167.48 170.679C167.412 170.786 167.387 170.915 167.413 171.039C167.438 171.163 167.511 171.273 167.616 171.344C167.721 171.416 167.85 171.443 167.975 171.421C169.505 171.453 169.281 171.559 171.617 171.536C174.159 171.683 176.706 171.699 179.249 171.585C179.311 171.596 179.375 171.594 179.437 171.58C179.499 171.567 179.557 171.541 179.609 171.505C179.661 171.468 179.705 171.422 179.739 171.369C179.773 171.315 179.796 171.256 179.807 171.194C179.818 171.131 179.816 171.068 179.803 171.006C179.789 170.944 179.763 170.886 179.727 170.834C179.69 170.782 179.644 170.738 179.591 170.704C179.537 170.67 179.478 170.647 179.415 170.636C177.64 169.696 175.667 169.187 173.658 169.152C171.614 169.027 169.575 169.483 167.78 170.467Z" fill="black"/>
<path fill-rule="evenodd" clip-rule="evenodd" d="M146.746 178.776C146.71 178.466 146.555 178.182 146.315 177.983C146.074 177.784 145.766 177.686 145.454 177.708C145.142 177.73 144.851 177.871 144.641 178.102C144.431 178.333 144.319 178.636 144.327 178.948L144.525 181.644C144.56 181.955 144.715 182.24 144.957 182.44C145.199 182.639 145.508 182.738 145.821 182.715C146.134 182.691 146.426 182.548 146.635 182.315C146.844 182.081 146.955 181.776 146.944 181.463L146.746 178.776Z" fill="black"/>
<path fill-rule="evenodd" clip-rule="evenodd" d="M172.166 176.057C171.849 175.994 171.519 176.059 171.25 176.238C170.981 176.417 170.794 176.695 170.731 177.011C170.641 178.033 170.633 179.06 170.708 180.083C170.708 180.404 170.836 180.712 171.063 180.94C171.291 181.167 171.6 181.295 171.922 181.295C172.244 181.295 172.552 181.167 172.78 180.94C173.008 180.712 173.136 180.404 173.136 180.083C173.136 179.796 173.05 177.874 173.113 177.476C173.174 177.162 173.108 176.838 172.931 176.572C172.754 176.307 172.479 176.122 172.166 176.057Z" fill="black"/>
<path fill-rule="evenodd" clip-rule="evenodd" d="M153.404 208.718C154.646 209.662 156.064 210.347 157.576 210.733C159.087 211.119 160.661 211.199 162.204 210.967C163.687 210.709 165.118 210.21 166.44 209.492C166.534 209.439 166.606 209.356 166.645 209.256C166.684 209.156 166.686 209.046 166.652 208.944C166.618 208.842 166.55 208.755 166.459 208.698C166.368 208.642 166.259 208.618 166.153 208.632C163.503 209.079 160.794 209.051 158.154 208.549C155.605 207.796 153.271 206.45 151.344 204.621C151.269 204.533 151.163 204.476 151.048 204.462C150.932 204.449 150.816 204.479 150.723 204.549C150.629 204.618 150.566 204.72 150.545 204.834C150.525 204.948 150.549 205.066 150.612 205.163C151.303 206.517 152.252 207.725 153.404 208.718Z" fill="black"/>
<path fill-rule="evenodd" clip-rule="evenodd" d="M240.274 375.828C241.18 375.828 237.162 337.577 232.438 305.019C231.939 301.581 231.316 302.679 231.336 302.965C233.69 332.661 238.419 368.069 239.857 375.369C239.872 375.479 239.92 375.581 239.994 375.663C240.069 375.745 240.166 375.802 240.274 375.828Z" fill="black"/>
<path fill-rule="evenodd" clip-rule="evenodd" d="M558.301 357.5C553.327 347.931 538.432 330.587 520.443 311.374C530.669 305.959 537.316 301.55 538.464 298.888C539.233 297.118 536.693 295.341 535.089 294.247C527.053 288.769 503.731 277.822 475.065 264.972C470.244 260.196 465.594 255.612 461.198 251.323C475.097 228.976 476.776 203.805 470.095 178.358C452.479 111.915 403.224 96.0548 338.548 121.805C321.678 128.521 288.088 148.212 278.123 183.285C274.949 194.729 274.388 206.738 276.481 218.428C257.812 225.547 233.902 234.715 203.549 245.645C196.044 241.906 192.999 241.176 193.059 240.795C193.114 240.563 193.103 240.321 193.026 240.096C192.95 239.871 192.811 239.672 192.626 239.523C186.886 235.984 177.363 234.847 175.908 236.085C175.159 236.62 174.516 237.288 174.008 238.056L169.789 224.456C172.41 223.364 178.841 219.657 183.35 208.472C186.619 199.568 188.223 190.14 188.083 180.658C189.3 178.798 189.886 176.596 189.753 174.377C189.621 172.159 188.778 170.042 187.348 168.339C187.259 167.674 187.161 166.998 187.061 166.316C187.676 164.249 188.156 162.143 188.496 160.013C188.496 156.661 189.308 151.392 187.747 148.267C187.553 146.767 187.553 145.248 187.747 143.748C187.609 138.878 181.631 136.683 177.234 132.543C177.372 129.26 177.469 125.63 177.521 122.699C186.247 120.239 194.79 117.169 203.084 113.511C204.588 112.738 206.875 111.506 206.907 109.91C207.01 103.183 147.974 87.6202 140.719 89.302C140.458 88.5199 86.0196 108.26 77.4412 116.686C77.2583 116.856 77.1125 117.061 77.0128 117.29C76.9131 117.519 76.8616 117.766 76.8616 118.015C76.8616 118.264 76.9131 118.511 77.0128 118.74C77.1125 118.969 77.2583 119.174 77.4412 119.344C76.5553 123.604 76.7089 128.014 77.8889 132.203C76.9981 132.259 76.1426 132.572 75.4258 133.103C74.709 133.634 74.1616 134.361 73.8496 135.196C73.5377 136.031 73.4745 136.938 73.6677 137.808C73.8609 138.678 74.3023 139.473 74.9386 140.098C72.1575 144.084 72.4962 152.504 74.6085 156.836C74.6466 156.958 74.7316 157.06 74.8449 157.119C74.9582 157.178 75.0905 157.19 75.2127 157.152C75.3348 157.114 75.4369 157.029 75.4963 156.916C75.5558 156.803 75.5679 156.671 75.5298 156.549C75.226 151.282 75.3604 145.999 75.9316 140.755C76.5 141.038 77.114 141.219 77.7454 141.29C76.1583 145.777 77.3322 151.73 78.6552 156.291C78.6682 156.418 78.7309 156.534 78.8297 156.614C78.9285 156.695 79.0551 156.733 79.1819 156.72C79.3086 156.707 79.425 156.644 79.5055 156.546C79.5859 156.447 79.6239 156.321 79.6109 156.194C80.0845 148.143 79.169 148.459 79.0915 141.296C83.009 140.886 78.8848 137.718 83.141 155.621C83.1545 155.744 83.2147 155.857 83.3093 155.937C83.4039 156.016 83.5255 156.057 83.6491 156.049C83.7727 156.042 83.8887 155.987 83.9731 155.897C84.0575 155.807 84.1038 155.687 84.1025 155.564C84.5345 150.305 83.887 145.013 82.1997 140.012C82.6218 139.668 82.9718 139.243 83.23 138.763C85.15 140.482 84.7109 146.453 87.0988 155.618C87.1209 155.738 87.1881 155.846 87.2866 155.918C87.385 155.991 87.5075 156.023 87.629 156.009C87.7506 155.995 87.8622 155.935 87.9412 155.842C88.0202 155.748 88.0607 155.628 88.0545 155.506C88.1779 150.662 88.2181 139.193 83.5859 137.649C83.704 136.988 83.6776 136.31 83.5086 135.66C83.3396 135.011 83.032 134.406 82.6067 133.886C82.1815 133.366 81.6488 132.944 81.045 132.649C80.4412 132.354 79.7807 132.193 79.1087 132.177C79.3719 128.476 79.3767 124.762 79.123 121.061C78.925 119.396 77.6019 122.155 105.814 127.263C106.009 130.435 106.345 135.254 106.781 139.583C104.17 142.574 102.048 145.959 100.493 149.61C97.8699 155.784 100.461 161.511 102.459 167.393C102.846 168.539 102.941 169.846 103.214 171.029C103.702 173.152 104.396 173.12 104.19 175.258C103.951 177.722 102.669 180.294 103.512 182.758C104.999 185.743 106.897 188.506 109.149 190.967C110.779 192.732 111.817 194.962 112.119 197.344C112.174 199.51 116.783 202.464 118.146 202.573L119.932 207.223C121.447 211.128 131.819 220.794 134.933 223.628C135.246 226.152 135.906 232.096 136.038 236.466C135.027 236.151 133.989 235.926 132.938 235.795C119.805 235.586 57.5952 259.844 35.8147 299.51C2.50552 360.368 30.7406 401.598 30.8611 401.894C11.9736 420.665 0.840916 464.838 45.6416 484.159C62.3183 491.075 79.8104 495.84 97.6948 498.338C97.448 503.3 97.0806 523.92 102.026 524.086C103.722 524.18 105.076 521.994 105.958 520.361C108.801 514.391 111.121 508.186 112.891 501.816C121.524 501.243 121.214 501.375 121.567 500.957C164.322 504.167 207.318 501.048 249.159 491.703C249.498 491.628 249.495 491.823 250.066 489.319L255.286 488.425C283.966 533.572 273.413 480.595 264.625 467.909C264.115 466.965 263.42 466.132 262.582 465.46C261.744 464.788 260.78 464.29 259.746 463.995C266.15 460.444 272.329 456.504 278.249 452.197C294.923 462.438 312.203 471.662 329.993 479.819C343.02 485.466 523.431 415.502 529.934 400.398C530.7 398.622 528.158 396.851 526.556 395.76C522.404 393.108 518.105 390.693 513.678 388.528C513.799 387.669 513.914 386.795 514.02 385.924C542.054 405.343 565.628 371.619 558.301 357.5ZM82.237 135.36C83.3247 140.388 74.244 139.978 76.144 135.801C76.3345 135.393 76.6236 135.038 76.9853 134.769C77.3469 134.5 77.7699 134.325 78.2161 134.26C79.8836 133.844 81.508 133.813 82.237 135.36ZM471.819 346.51C431.969 362.402 374.908 382.566 343.591 389.061C343.464 389.086 343.351 389.159 343.279 389.266C343.206 389.373 343.179 389.504 343.203 389.631C343.228 389.758 343.301 389.87 343.409 389.943C343.516 390.015 343.647 390.042 343.774 390.018C377.692 383.75 433.198 364.861 473.366 348.118C476.009 350.855 478.611 353.52 481.173 356.114C441.59 373.097 378.3 397.029 344.848 404.532C344.721 404.558 344.61 404.634 344.539 404.742C344.468 404.85 344.443 404.982 344.469 405.108C344.495 405.235 344.571 405.346 344.679 405.416C344.787 405.487 344.919 405.513 345.046 405.486C381.532 398.097 442.517 375.742 482.614 357.552C483.89 358.837 485.151 360.098 486.396 361.334C439.202 381.735 346.28 420.811 333.336 422.576C330.314 406.73 334.671 387.15 340.548 378.633C353.96 378.896 413.01 358.168 463.184 337.422C466.088 340.505 468.958 343.542 471.828 346.51H471.819ZM334.289 439.548C325.105 435.632 314.165 430.094 302.145 423.524C302.859 421.448 303.411 419.319 303.798 417.158C313.912 422.45 324.049 427.389 334.12 431.841C343.487 435.981 444.181 399.023 498.886 373.35C500.591 374.92 502.232 376.396 503.808 377.779C451.035 403.206 343.513 443.502 334.289 439.548ZM505.789 379.484C507.95 381.334 509.962 382.965 511.79 384.34C511.434 388.8 510.581 393.207 509.247 397.479C500.063 402.083 340.649 470.823 328.291 470.823C325.877 460.351 329.292 450.627 335.466 441.86C356.276 442.25 463.092 400.272 505.789 379.484ZM178.035 333.618C178.68 333.197 179.286 332.717 179.843 332.185C182.397 329.653 181.215 326.808 178.643 326.455C181.088 323.799 179.653 320.035 174.548 321.204C171.705 321.912 169.129 323.43 167.134 325.573C166.233 323.175 165.398 320.516 163.653 319.634C162.537 306.455 161.762 295.648 161.994 293.247C164.403 292.992 166.837 293.08 169.221 293.508C258.535 297.685 210.093 309.89 270.466 274.579C272.125 280.856 273.787 290.239 275.319 300.559C272.912 299.856 270.389 299.639 267.897 299.92C262.662 300.375 262.502 304.406 265.619 306.14C265.028 306.363 264.532 306.781 264.214 307.325C263.895 307.868 263.773 308.505 263.868 309.128C264.112 311.231 266.436 312.213 268.46 312.781C266.304 314.376 265.455 317.307 268.173 318.817C271.225 320.274 274.636 320.81 277.988 320.359C279.593 333.283 280.893 345.602 281.65 353.446C275.465 359.832 251.682 383.87 243.218 386.68C240.635 387.58 171.896 378.753 169.155 378.401C168.868 375.507 167.433 361.042 165.906 344.8C171.884 343.889 180.256 341.413 181.091 337.706C181.496 335.875 179.811 334.248 178.023 333.618H178.035ZM276.912 314.577C278.381 314.477 279.455 311.792 273.718 311.635C271.76 311.062 269.935 310.915 267.978 310.159C263.555 308.42 268.351 307.274 272.963 308.337C275.761 309.297 276.843 306.604 273.597 306.022C273.149 305.879 263.793 304.197 266.135 302.787C266.739 302.462 267.401 302.259 268.084 302.192C271.41 301.578 274.846 302.227 277.718 304.011C280.947 306.363 280.014 314.207 278.912 318.193C278.548 319.258 277.477 319.513 276.24 319.476C273.729 319.215 271.283 318.511 269.017 317.399C268.072 316.826 268.121 316.273 268.48 315.617C270.242 312.385 274.823 314.674 276.912 314.577ZM283.694 354.687C284.236 354.114 284.015 353.727 283.49 348.957C301.095 359.717 319.311 369.448 338.046 378.1C329.694 391.044 327.768 414.918 332.369 428.409C320.499 423.072 313.958 419.697 304.214 414.339C306.705 391.835 290.702 369.359 275.061 363.46C278.8 359.764 281.9 356.572 283.694 354.687ZM335.555 429.893C334.717 428.029 334.076 426.083 333.643 424.086C349.621 422.032 442.129 383.048 488.204 363.133C491.267 366.147 494.231 368.986 497.021 371.608C443.67 396.378 347.075 432.308 335.555 429.893ZM279.825 183.764C289.376 149.117 322.301 129.329 338.918 122.708C402.423 97.4271 450.995 113.402 467.916 178.934C475.338 207.412 470.709 229.974 460.842 247.272C446.916 271.676 422.605 285.606 407.101 290.82C363.844 305.432 323.943 305.102 298.956 266.519C282.747 241.562 271.91 212.44 279.825 183.764ZM276.794 220.215C280.452 237.203 287.328 253.336 297.054 267.746C310.887 289.202 329.008 298.373 347.167 301.183C370.285 304.759 393.474 297.96 407.861 293.112C411.598 291.836 415.25 290.323 418.793 288.583C430.764 302.189 446.124 319.278 461.364 335.503C457.269 337.222 453.101 338.941 448.9 340.637C399.266 360.592 345.775 379.054 339.389 376.318C320.096 367.528 301.343 357.602 283.229 346.593C283.229 346.593 281.909 334.317 279.802 318.611C281.352 313.68 282.882 305.761 278.878 302.512C278.395 302.122 277.879 301.773 277.337 301.47C276.002 291.954 274.131 282.52 271.732 273.215C271.703 273.103 271.65 272.998 271.576 272.909C271.502 272.819 271.409 272.747 271.304 272.698C271.199 272.648 271.085 272.622 270.968 272.622C270.852 272.622 270.738 272.647 270.632 272.696C270.299 272.831 268.623 273.865 266.118 275.441L258.762 272.917C258.355 272.765 258.782 272.304 245.56 280.32C234.942 266.013 221.087 254.414 205.125 246.467C234.554 236.042 258.185 227.166 276.794 220.215ZM230.369 290.078C230.656 290.121 258.07 273.63 258.458 273.768L265.059 276.111C215.468 307.538 248.376 295.757 170.349 291.562C175.05 288.007 175.965 287.265 176.258 287.102C179.343 285.136 228.983 289.803 230.369 290.078ZM185.221 168.347C185.81 172.375 186.04 176.447 185.907 180.515C183.552 182.855 180.384 184.2 177.062 184.268C172.108 184.555 166.73 183.919 164.925 179.326C159.638 166.302 178.749 163.379 185.221 168.347ZM180.81 161.586C182.17 163.632 183.361 165.236 184.113 166.213C177.779 163.689 160.998 165.133 162.525 176.693C160.356 176.252 158.105 176.459 156.053 177.289C154.466 165.058 132.255 167.777 129.302 176.263C128.611 175.797 127.83 175.48 127.009 175.332C126.189 175.184 125.346 175.209 124.535 175.404C124.036 170.098 124.716 162.583 128.961 160.506C130.166 159.933 132.436 163.182 134.322 163.657C138.626 164.751 143.092 165.06 147.507 164.568C152.557 164.134 157.578 163.402 162.542 162.377C169.594 160.658 169.02 159.091 173.879 156.18C174.398 155.867 176.175 154.882 176.709 155.151C179.541 156.575 178.675 158.377 180.81 161.586ZM154.455 179.062C154.306 184.749 148.985 187.881 143.471 188.179C138.532 188.465 133.139 187.835 131.334 183.234C130.56 181.831 130.216 180.232 130.343 178.636C130.47 177.04 131.063 175.515 132.049 174.252C137.413 167.952 154.914 167.582 154.455 179.062ZM109.769 147.934C108.359 141.182 107.409 134.342 106.925 127.461C124.432 130.584 143.583 132.839 145.805 132.045C148.436 131.099 161.687 127.498 175.125 123.424C174.97 132.466 174.439 138.265 174.384 140.104C152.597 139.908 130.876 142.54 109.769 147.934ZM79.212 117.981C86.6998 110.979 133.352 91.9091 140.931 90.2274C147.716 88.7233 197.427 103.263 204.554 109.913C199.675 114.912 150.511 127.805 144.995 129.77C142.048 130.827 85.5576 123 79.212 117.981ZM126.756 213.342C123.052 210.089 120.403 205.808 119.145 201.046C118.901 198.298 116.904 191.339 114.86 190.382C112.349 188.461 110.185 186.126 108.46 183.477C105.831 179.489 106.064 174.596 110.495 172.327C117.925 168.534 119.843 178.63 121.542 180.369C122.529 181.36 125.192 180.082 124.753 177.154C126.072 177.684 127.478 177.966 128.9 177.985C128.719 179.977 129.014 181.983 129.761 183.838C131.822 189.299 137.746 190.296 143.583 190.001C150.385 189.623 156.323 185.497 156.174 178.813C157.55 179.143 158.984 179.152 160.364 178.839C160.812 180.355 164.302 193.989 163.027 194.94C162.436 195.358 161.795 195.701 161.119 195.963C157.798 197.313 156.946 196.84 157.023 197.539C157.035 197.645 157.088 197.743 157.172 197.81C157.255 197.877 157.362 197.908 157.468 197.897C160.258 197.848 165.547 197.121 165.407 194.387C165.19 188.904 163.814 183.528 161.369 178.613C161.854 178.448 162.325 178.242 162.775 177.997C164.394 184.91 169.95 186.457 177.177 186.09C180.309 185.975 183.333 184.914 185.85 183.048C185.743 191.44 184.183 199.75 181.241 207.612C175.965 220.582 168.076 222.593 168.076 222.593C167.92 222.63 167.774 222.699 167.647 222.795C167.519 222.891 167.412 223.011 167.333 223.15C167.254 223.289 167.204 223.442 167.187 223.6C167.169 223.759 167.185 223.919 167.232 224.072L172.286 240.482C167.614 247.373 169.129 247.006 168.018 246.545C164.141 244.914 146.78 239.454 138.004 237.004C137.881 232.134 137.017 225.464 136.695 223.069C136.555 222.135 134.698 221.582 126.756 213.342ZM115.42 243.31C122.17 249.169 152.825 267.187 161.742 270.324C162.641 270.767 163.668 270.883 164.643 270.651C165.602 270.215 165.166 271.442 169.072 249.41C170.538 251.063 174.309 255.008 184.056 265.196C184.2 265.35 184.38 265.465 184.581 265.531C184.781 265.597 184.995 265.611 185.202 265.572C185.41 265.533 185.604 265.442 185.767 265.308C185.93 265.175 186.056 265.002 186.134 264.806C188.627 257.886 190.726 250.831 192.422 243.674C193.461 243.903 194.431 244.152 195.292 244.43C194.781 257.323 194.922 282.466 182.983 285.655C180.666 285.517 178.34 285.642 176.052 286.027C157.362 284.87 135.946 269.31 123.123 256.455C119.068 252.401 114.975 248.814 111.198 244.68C112.57 244.247 113.988 243.777 115.42 243.31ZM67.2039 348.055C90.4911 327.2 124.403 322.659 155.158 329.054C156.573 329.489 156.165 329.306 157.658 333.701C159.263 332.522 160.738 331.178 162.06 329.69C163.059 328.753 160.858 326.109 161.044 322.61C161.082 321.937 161.217 321.318 161.871 321.204C164.597 320.722 164.709 327.925 166.388 328.501C167.677 328.951 168.11 326.891 171.764 324.753C184.776 317.178 169.439 329.879 169.428 330.237C169.423 330.405 169.453 330.572 169.516 330.728C169.579 330.883 169.673 331.025 169.793 331.142C169.913 331.26 170.055 331.353 170.212 331.413C170.369 331.474 170.537 331.502 170.705 331.495C172.008 331.495 172.349 330.028 176.551 329.048C177.205 328.896 178.692 328.615 178.821 329.272C179.108 330.664 173.876 333.265 172.648 334.093C167.086 336.027 168.997 338.328 170.421 337.964C172.662 337.391 174.631 334.812 177.343 335.652C178.063 335.884 179.263 336.615 179.128 337.351C178.993 338.087 177.877 338.944 177.248 339.414C172.43 343.024 161.722 344.167 161.435 344.284C161.667 346.934 163.759 350.587 163.223 351.699C155.055 368.521 143.869 383.706 130.218 396.502C129.931 396.645 118.818 407.389 116.516 406.999C114.616 406.426 117.32 406.223 124.018 400.387C139.386 386.468 151.917 369.717 160.921 351.054C160.06 348.109 155.327 334.291 154.32 331.34C137.964 327.962 121.087 327.984 104.741 331.406C73.561 338.259 62.3536 355.472 60.8297 355.715C58.6944 355.707 65.6053 349.496 67.2183 348.055H67.2039ZM102.247 521.645C100.401 519.178 99.566 508.618 99.9506 498.679C103.314 499.158 106.684 499.581 110.059 499.945C110.593 501.16 110.455 501.063 110.693 501.352C109.493 505.22 105.163 518.565 102.261 521.645H102.247ZM248.487 490.594C224.4 495.227 200.012 498.139 175.509 499.309C133.894 501.349 85.0008 498.584 46.5801 481.962C23.7751 472.123 16.1868 455.741 16.778 439.846C17.442 426.616 22.7921 414.052 31.8742 404.395C33.458 408.467 35.5053 412.344 37.9758 415.949C41.2161 419.731 95.6428 422.229 150.48 422.37C154.155 418.74 158.05 415.338 162.141 412.182C181.568 419.47 190.935 423.688 254.649 463.359L248.487 490.594ZM259.755 465.909C266.21 468.175 273.749 499.026 271.043 503.991C268.902 503.418 262.737 496.037 256.742 486.655C256.622 486.467 256.448 486.32 256.243 486.233C256.038 486.146 255.812 486.123 255.594 486.168L250.508 487.216C251.263 483.738 252.566 477.564 254.916 466.617C255.598 466.096 256.402 465.758 257.251 465.634C258.1 465.51 258.967 465.605 259.769 465.909H259.755ZM255.53 463.821C255.637 463.328 255.803 462.961 255.444 462.72C255.731 462.72 196.687 425.232 181.111 418.055C176.026 415.72 170.57 413.408 164.844 411.179C177.23 401.527 190.347 392.847 204.077 385.219C222.812 387.486 242.173 389.62 243.97 388.998C250.215 386.927 263.463 374.834 273.299 365.219C283.883 368.657 297.209 382.449 301.112 399.857C304.372 414.405 300.825 431.122 283.479 445.356C274.79 452.401 265.435 458.586 255.545 463.821H255.53ZM527.543 399.751C518.773 414.279 342.672 482.916 330.834 477.85C313.332 469.921 296.324 460.95 279.9 450.985C289.187 444.006 297.005 436.612 301.425 425.45C306.094 428.028 330.782 441.247 334.303 441.78C327.886 450.848 324.525 460.829 327.031 471.602C328.813 479.008 501.469 403.822 509.451 400.046C510.272 399.656 510.975 399.39 511.236 398.865C512.244 396.354 512.926 393.725 513.268 391.041C521.169 395.083 526.286 398.103 527.558 399.751H527.543ZM518.721 309.56C506.38 296.459 492.742 282.589 479.898 269.794C510.168 283.449 533.174 294.453 536.084 298.218C534.05 301.621 521.984 308.125 518.735 309.56H518.721Z" fill="black"/>
</svg>
