<svg width="574" height="574" viewBox="0 0 574 574" fill="none" xmlns="http://www.w3.org/2000/svg">
<path d="M222.086 184.452C222.365 184.447 222.631 184.333 222.828 184.136C223.025 183.938 223.138 183.672 223.143 183.393C223.43 162.93 222.933 143.706 221.343 123.381C221.324 123.128 221.213 122.891 221.03 122.716C220.847 122.54 220.606 122.437 220.353 122.428C185.198 121.254 158.717 121.949 125.413 122.46L124.983 122.865C123.754 143.273 123.261 162.89 123.935 183.318C123.944 183.542 124.038 183.755 124.198 183.912C124.358 184.07 124.572 184.16 124.796 184.165C149.843 184.928 177.309 185.264 222.086 184.452ZM125.832 123.321C154.581 123.321 188.591 123.183 219.354 124.455C220.789 143.853 221.263 163.329 221.004 182.322C189.899 182.928 157.147 183.083 125.663 182.423C124.79 163.016 124.986 142.785 125.832 123.318V123.321Z" fill="black"/>
<path d="M222.749 255.774C223.029 255.77 223.295 255.657 223.492 255.459C223.689 255.261 223.802 254.995 223.805 254.715C224.092 234.577 223.616 215.276 222.006 194.704C221.986 194.451 221.874 194.215 221.692 194.04C221.509 193.864 221.269 193.761 221.016 193.751C185.792 192.574 158.961 193.277 126.076 193.785L125.643 194.19C124.415 214.679 123.921 234.293 124.598 254.644C124.607 254.868 124.701 255.08 124.861 255.237C125.021 255.394 125.235 255.483 125.459 255.487C150.388 256.248 177.822 256.592 222.749 255.774ZM126.317 253.743C125.456 234.313 125.643 214.073 126.49 194.641C155.238 194.641 189.248 194.503 220.011 195.774C221.446 215.029 221.92 234.413 221.659 253.645C190.439 254.248 157.801 254.403 126.323 253.743H126.317Z" fill="black"/>
<path d="M285.775 139.459C292.396 139.459 316.644 139.324 316.733 139.327C316.79 139.331 316.846 139.323 316.9 139.305C316.954 139.287 317.003 139.258 317.046 139.22C317.088 139.183 317.123 139.138 317.148 139.087C317.173 139.036 317.187 138.981 317.191 138.924C317.195 138.867 317.187 138.811 317.169 138.757C317.15 138.704 317.122 138.654 317.084 138.612C317.047 138.569 317.001 138.534 316.95 138.509C316.9 138.484 316.844 138.47 316.788 138.466C294.52 136.942 272.175 136.912 249.902 138.374C244.977 139.795 264.901 139.482 285.775 139.459Z" fill="black"/>
<path d="M317.448 209.797C295.185 208.27 272.844 208.239 250.577 209.705C245.678 211.114 265.438 210.799 286.452 210.784C292.8 210.784 317.316 210.649 317.411 210.655C317.519 210.652 317.623 210.608 317.701 210.532C317.779 210.455 317.825 210.352 317.83 210.243C317.834 210.135 317.797 210.028 317.727 209.945C317.656 209.862 317.556 209.809 317.448 209.797Z" fill="black"/>
<path d="M250.092 154.994C245.144 156.412 265.208 156.091 285.967 156.076C292.393 156.076 316.837 155.941 316.923 155.944C316.979 155.948 317.036 155.94 317.089 155.922C317.143 155.904 317.193 155.875 317.235 155.837C317.278 155.8 317.312 155.755 317.337 155.704C317.362 155.653 317.377 155.598 317.38 155.541C317.384 155.484 317.376 155.428 317.358 155.374C317.34 155.321 317.311 155.271 317.274 155.229C317.236 155.186 317.191 155.151 317.14 155.126C317.089 155.101 317.034 155.087 316.977 155.083C294.709 153.559 272.364 153.529 250.092 154.994Z" fill="black"/>
<path d="M250.755 226.317C245.44 227.844 267.708 227.408 286.63 227.402C293.205 227.402 317.505 227.267 317.588 227.27C317.645 227.273 317.702 227.266 317.755 227.247C317.809 227.229 317.858 227.2 317.901 227.163C317.943 227.126 317.978 227.08 318.003 227.029C318.028 226.978 318.043 226.923 318.046 226.867C318.05 226.81 318.042 226.753 318.024 226.7C318.006 226.646 317.977 226.597 317.939 226.554C317.902 226.512 317.857 226.477 317.806 226.452C317.755 226.427 317.7 226.412 317.643 226.409C295.374 224.89 273.028 224.859 250.755 226.317Z" fill="black"/>
<path d="M250.496 171.322C243.746 173.271 304.039 171.649 317.327 172.272C317.441 172.279 317.554 172.241 317.64 172.165C317.726 172.09 317.778 171.983 317.785 171.869C317.792 171.755 317.754 171.642 317.678 171.556C317.603 171.471 317.496 171.418 317.382 171.411C295.114 169.884 272.768 169.854 250.496 171.322Z" fill="black"/>
<path d="M318.045 242.739C295.782 241.209 273.441 241.177 251.174 242.644C246.252 244.056 266.126 243.735 287.049 243.726C293.673 243.726 317.918 243.591 318.007 243.597C318.116 243.594 318.22 243.55 318.298 243.474C318.376 243.398 318.422 243.294 318.426 243.186C318.431 243.077 318.394 242.97 318.324 242.887C318.253 242.804 318.153 242.751 318.045 242.739Z" fill="black"/>
<path d="M163.995 167.648C168.3 167.22 183.295 156.642 186.274 153.651C186.467 153.481 186.588 153.244 186.612 152.988C186.637 152.733 186.563 152.477 186.407 152.273C185.259 150.523 169.824 142.458 162.746 140.475C162.683 140.456 162.617 140.453 162.553 140.464C162.488 140.475 162.427 140.501 162.374 140.539C162.321 140.578 162.278 140.628 162.247 140.686C162.217 140.744 162.2 140.808 162.198 140.874C162.198 141.161 160.958 160.849 161.877 165.938C162.1 167.183 162.695 167.78 163.995 167.648Z" fill="black"/>
<path d="M163.409 211.806C163.346 211.787 163.28 211.784 163.216 211.795C163.151 211.806 163.09 211.832 163.037 211.87C162.984 211.909 162.94 211.959 162.91 212.017C162.88 212.075 162.863 212.139 162.861 212.205C162.861 212.492 161.607 232.1 162.537 237.269C162.761 238.511 163.355 239.114 164.655 238.991C168.96 238.563 183.95 227.987 186.937 224.991C187.13 224.82 187.25 224.583 187.274 224.327C187.298 224.072 187.224 223.816 187.067 223.613C185.95 221.894 170.621 213.815 163.409 211.806Z" fill="black"/>
<path d="M187.985 281.708C180.179 276.571 154.34 277.44 145.443 280.56C144.203 281.165 143.134 282.071 142.336 283.197C141.538 284.322 141.035 285.63 140.874 287C140.774 287.456 139.083 297.639 142.596 299.599C146.128 300.744 149.915 300.844 153.502 299.886C155.244 299.453 155.663 298.977 155.947 297.877C156.234 296.729 156.185 294.821 156.639 294.373C159.681 291.426 173.052 292.531 175.354 294.875C175.897 295.401 175.084 299.734 177.627 300.168C182.142 300.928 188.301 301.827 191.555 298.572C193.972 296.184 191.791 284.199 187.985 281.708ZM190.034 297.091C187.497 299.645 181.591 298.73 178.043 298.147C176.967 295.647 179.117 293.472 173.58 291.868C168.676 290.433 158.774 290.011 155.557 293.326C154.727 294.187 154.822 295.748 154.664 297.057C154.527 298.205 154.495 298.256 153.16 298.641C150.56 299.399 143.351 300.271 142.22 298.107C140.673 295.157 141.086 283.53 145.931 282.003C153.93 279.461 179.797 278.818 186.805 283.487C189.661 285.373 191.245 295.897 190.04 297.091H190.034Z" fill="black"/>
<path d="M229.743 282.144C222.31 282.431 222.451 282.273 222.391 282.781C222.058 284.909 221.835 287.053 221.722 289.204C221.641 291.695 221.828 293.079 224.322 293.027C225.846 292.998 229.25 292.126 229.657 292.542C231.305 294.654 233.168 296.59 235.217 298.316C237.544 299.955 239.771 299.786 240.649 296.629C241.952 291.945 240.715 278.192 238.572 276.108C234.973 272.65 231.684 280.164 229.743 282.144ZM238.758 295.312C238.708 295.964 238.486 296.592 238.115 297.131C236.953 298.279 231.311 291.463 231.021 291.182C229.614 289.818 226.813 291.098 224.514 291.383C224.133 291.457 223.74 291.441 223.366 291.337C222.972 288.668 222.921 285.959 223.214 283.278L229.832 283.527C230.498 283.55 231.141 282.816 231.569 282.305C233.061 280.528 235.836 276.154 237.151 277.52C238.908 283.28 239.455 289.342 238.758 295.323V295.312Z" fill="black"/>
<path d="M250.393 282.494C250.327 282.4 250.225 282.337 250.112 282.317C249.998 282.298 249.882 282.324 249.788 282.391C249.694 282.458 249.63 282.559 249.61 282.672C249.591 282.786 249.618 282.903 249.684 282.997C249.704 283.094 249.592 288.022 249.578 288.071C249.502 288.157 249.463 288.269 249.47 288.384C249.477 288.499 249.529 288.606 249.615 288.682C249.701 288.758 249.814 288.797 249.929 288.79C250.043 288.783 250.151 288.731 250.227 288.645C250.711 288.298 251.109 287.843 251.388 287.317C251.668 286.791 251.822 286.207 251.838 285.611C251.854 285.015 251.732 284.424 251.481 283.883C251.231 283.342 250.858 282.867 250.393 282.494Z" fill="black"/>
<path d="M255.734 277.426C255.653 277.346 255.544 277.301 255.431 277.3C255.317 277.3 255.208 277.344 255.127 277.424C255.045 277.503 254.998 277.611 254.996 277.725C254.994 277.838 255.036 277.948 255.114 278.031C256.917 280.531 256.549 291.483 255.505 293.038C255.445 293.124 255.419 293.228 255.431 293.332C255.443 293.436 255.492 293.531 255.569 293.601C255.646 293.672 255.746 293.711 255.851 293.713C255.955 293.715 256.056 293.679 256.136 293.612C259.216 291.167 259.706 280.442 255.734 277.426Z" fill="black"/>
<path d="M362.94 303.164C363.606 302.897 356.308 290.8 354.078 288.814C353.961 288.686 353.815 288.588 353.652 288.53C353.488 288.471 353.313 288.453 353.142 288.478C352.97 288.503 352.807 288.569 352.667 288.671C352.527 288.773 352.414 288.908 352.338 289.064C350.006 294.259 347.967 299.58 346.231 305.004C345.91 306.35 346.707 306.74 348.082 306.789C350.714 306.875 363.724 305.555 362.94 303.164Z" fill="black"/>
<path d="M410.215 173.061C410.258 173.345 410.413 173.6 410.644 173.77C410.876 173.94 411.165 174.011 411.449 173.968C411.733 173.924 411.988 173.77 412.158 173.538C412.328 173.307 412.399 173.018 412.356 172.734C412.27 172.183 412.129 171.626 412.086 171.233C412.042 170.957 411.892 170.709 411.669 170.541C411.446 170.372 411.166 170.297 410.889 170.331C410.611 170.364 410.357 170.503 410.18 170.72C410.004 170.936 409.917 171.212 409.939 171.491C409.997 172.002 410.146 172.59 410.215 173.061Z" fill="black"/>
<path d="M417.404 179.926C418.446 181.935 420.63 180.713 422.636 179.969C422.74 179.942 422.829 179.876 422.886 179.785C422.943 179.694 422.963 179.585 422.943 179.48C422.923 179.375 422.864 179.281 422.778 179.217C422.692 179.154 422.585 179.125 422.478 179.137C416.885 179.309 420.228 180.687 417.47 168.905C417.462 168.791 417.408 168.685 417.322 168.61C417.235 168.535 417.122 168.498 417.008 168.507C416.894 168.515 416.788 168.568 416.713 168.655C416.638 168.742 416.601 168.854 416.609 168.969C416.123 171.677 416.106 174.448 416.558 177.162C416.741 178.111 417.025 179.038 417.404 179.926Z" fill="black"/>
<path d="M423.42 171.434C423.44 171.719 423.574 171.985 423.79 172.173C424.007 172.361 424.289 172.454 424.575 172.434C424.861 172.413 425.127 172.28 425.314 172.063C425.502 171.847 425.596 171.564 425.575 171.279C425.467 170.666 425.328 170.058 425.159 169.459C425.103 169.178 424.937 168.931 424.699 168.772C424.46 168.614 424.168 168.556 423.888 168.612C423.607 168.669 423.36 168.834 423.201 169.073C423.042 169.311 422.985 169.603 423.041 169.884C423.078 170.088 423.405 171.287 423.42 171.434Z" fill="black"/>
<path d="M425.133 184.828C425.107 184.845 420.995 186.49 420.828 186.513C420.718 186.478 420.599 186.488 420.497 186.54C420.395 186.593 420.318 186.684 420.283 186.794C420.248 186.904 420.258 187.023 420.31 187.125C420.363 187.227 420.454 187.304 420.564 187.339C421.025 187.657 421.557 187.858 422.114 187.924C422.67 187.989 423.235 187.918 423.757 187.717C424.28 187.515 424.746 187.189 425.114 186.767C425.483 186.344 425.742 185.838 425.871 185.293C425.932 185.195 425.953 185.077 425.927 184.964C425.901 184.851 425.832 184.753 425.734 184.692C425.637 184.63 425.518 184.61 425.405 184.635C425.293 184.661 425.195 184.73 425.133 184.828Z" fill="black"/>
<path d="M88.0573 396.608C89.633 396.419 119.515 396.419 119.805 396.422C122.472 396.422 122.073 390.016 119.963 389.499C120.11 388.776 91.4239 388.211 87.7216 388.983C87.5273 389.009 87.346 389.095 87.2034 389.229C87.0608 389.364 86.9639 389.539 86.9266 389.732C86.6012 391.409 86.454 393.115 86.4875 394.823C86.5879 395.842 87.0414 396.723 88.0573 396.608Z" fill="black"/>
<path d="M139.812 395.687C151.702 396.811 163.649 397.207 175.587 396.875C175.643 396.878 175.7 396.87 175.753 396.851C175.806 396.832 175.856 396.803 175.898 396.765C175.94 396.727 175.974 396.682 175.999 396.631C176.023 396.58 176.037 396.524 176.04 396.468C176.043 396.411 176.035 396.355 176.016 396.301C175.997 396.248 175.968 396.199 175.93 396.156C175.892 396.114 175.847 396.08 175.796 396.056C175.744 396.031 175.689 396.017 175.633 396.014C163.758 394.556 151.778 394.155 139.832 394.814C139.716 394.812 139.604 394.855 139.521 394.935C139.437 395.015 139.389 395.125 139.386 395.241C139.383 395.356 139.427 395.468 139.507 395.552C139.586 395.636 139.696 395.684 139.812 395.687Z" fill="black"/>
<path d="M184.486 379.75C170.792 378.286 157.003 377.902 143.247 378.602C143.145 378.617 143.051 378.668 142.983 378.745C142.914 378.823 142.876 378.923 142.874 379.026C142.873 379.13 142.908 379.23 142.973 379.31C143.039 379.39 143.131 379.444 143.233 379.463C156.941 380.534 170.694 380.917 184.441 380.611C184.555 380.617 184.667 380.577 184.752 380.501C184.837 380.424 184.888 380.317 184.894 380.203C184.9 380.089 184.861 379.977 184.784 379.892C184.708 379.807 184.601 379.756 184.486 379.75Z" fill="black"/>
<path d="M143.425 372.379C143.323 372.396 143.23 372.449 143.163 372.528C143.096 372.606 143.06 372.707 143.06 372.81C143.06 372.913 143.096 373.014 143.163 373.092C143.23 373.171 143.323 373.224 143.425 373.24C157.42 374.495 170.51 374.495 184.633 374.389C184.747 374.395 184.859 374.355 184.944 374.279C185.029 374.202 185.08 374.095 185.086 373.981C185.092 373.867 185.053 373.755 184.976 373.67C184.9 373.585 184.793 373.534 184.679 373.528C170.979 372.062 157.185 371.678 143.425 372.379Z" fill="black"/>
<path d="M348.937 73.4491C350.946 81.9615 364.55 95.1434 366.089 97.1093C365.836 99.4799 363.856 110.024 364.674 113.399C365.609 117.274 384.032 119.426 386.262 116.313C386.925 116.806 389.333 100.565 389.944 99.9363C391.135 98.7251 397.845 98.0909 399.656 97.1782C419.686 86.9926 422.903 62.0523 411.46 46.1812C407.764 41.0755 395.724 35.7344 389.565 34.5606C377.018 32.1813 362.183 34.9423 354.996 45.8999C352.157 49.8339 350.154 54.3083 349.112 59.0467C348.07 63.7851 348.011 68.6868 348.937 73.4491ZM385.562 115.802C383.601 118.428 366.508 115.604 365.962 113.104C365.797 111.891 365.787 110.662 365.934 109.447C371.163 112.157 381.779 113.936 386.52 111.855C386.107 114.226 385.76 115.948 385.562 115.802ZM386.695 110.828C384.092 111.689 369.395 109.295 366.031 108.423C366.183 106.948 366.407 105.332 366.64 103.805C373.068 107.083 380.464 107.931 387.467 106.193C387.2 107.754 386.939 109.373 386.695 110.828ZM387.628 105.22C380.612 105.255 373.616 104.466 366.783 102.869C367.07 101.064 367.262 100.025 367.615 97.8814C374.209 100.78 381.522 101.627 388.604 100.312C388.311 101.457 387.967 103.251 387.628 105.22ZM370.425 74.046C372.618 78.7815 379.583 75.768 378.662 70.4643C378.343 68.851 377.559 67.3664 376.406 66.1937C378.167 65.9575 379.959 66.1657 381.618 66.7993C380.873 67.5968 380.296 68.536 379.921 69.561C379.545 70.5859 379.38 71.6759 379.434 72.766C379.407 73.4904 379.595 74.2066 379.975 74.8243C380.354 75.4419 380.908 75.9334 381.567 76.2367C382.225 76.54 382.959 76.6415 383.675 76.5285C384.391 76.4154 385.057 76.0929 385.59 75.6016C386.589 74.4317 387.118 72.9325 387.075 71.3947C387.031 69.857 386.418 68.3901 385.355 67.2786C387.235 66.9723 389.163 67.2477 390.883 68.0678C389.841 68.6657 388.988 69.5436 388.42 70.6019C387.853 71.6601 387.593 72.8563 387.671 74.0546C387.775 74.6638 388.018 75.241 388.379 75.7421C388.741 76.2432 389.213 76.6547 389.758 76.9453C390.304 77.2359 390.909 77.3978 391.526 77.4186C392.144 77.4394 392.758 77.3185 393.322 77.0653C396.516 75.7594 396.373 71.5979 394.591 68.8312C395.549 68.7909 396.502 68.9954 397.36 69.4253C398.548 70.3811 399.315 71.7632 399.498 73.2769C399.685 77.6421 396.126 80.5437 393.006 83.6433C390.75 85.2486 388.683 87.1029 386.842 89.1709C385.522 92.3655 384.432 95.6505 383.581 99.0007C380.398 98.7137 376.886 98.3004 373.671 97.8527C373.569 94.3417 373.193 90.844 372.546 87.3915C371.421 83.451 366.78 80.2395 365.276 74.643C364.997 73.8116 364.886 72.9328 364.951 72.0581C365.016 71.1834 365.256 70.3305 365.655 69.5497C366.055 68.7688 366.606 68.0757 367.278 67.5112C367.949 66.9467 368.726 66.5222 369.564 66.2626C370.42 65.961 371.323 65.8181 372.23 65.8407C371.094 66.8373 370.306 68.171 369.981 69.6471C369.656 71.1232 369.812 72.6645 370.425 74.046ZM374.32 66.9026C378.031 69.9161 377.055 74.4421 373.843 74.3445C371.665 74.2756 370.635 69.0867 374.32 66.9026ZM383.332 68.1625C384.706 69.7554 385.691 72.5766 384.132 74.0202C383.159 74.9128 381.397 74.4249 381.589 71.9165C381.651 70.485 382.278 69.1334 383.332 68.1625ZM392.427 69.4282C392.997 70.0884 393.393 70.8801 393.581 71.7319C393.768 72.5837 393.74 73.4688 393.5 74.3072C393.401 74.5052 393.263 74.6814 393.095 74.8258C392.927 74.9701 392.732 75.0797 392.521 75.1481C392.243 75.286 391.937 75.3568 391.627 75.3547C391.317 75.3527 391.011 75.2779 390.735 75.1364C390.459 74.9949 390.22 74.7906 390.037 74.5399C389.855 74.2892 389.733 73.9991 389.683 73.693C389.379 72.06 390.974 70.1973 392.427 69.4282ZM356.761 47.0422C363.399 36.9599 377.365 34.4142 389.163 36.6585C394.8 37.7233 406.424 42.8376 409.753 47.4038C420.573 62.1814 417.751 85.9651 398.999 95.9068C397.013 96.9601 389.76 97.5312 388.937 99.2963C387.616 99.2733 386.104 99.1901 384.485 99.0638C385.633 94.8564 387.042 90.1496 389.416 88.1377C391.109 86.7027 393.405 85.1874 393.985 84.6421C396.074 82.8855 397.952 80.8928 399.582 78.704C400.547 77.4153 401.108 75.8691 401.194 74.2613C401.28 72.6534 400.886 71.0563 400.064 69.6721C399.625 68.8706 398.974 68.206 398.181 67.7521C396.634 66.9317 394.843 66.6954 393.135 67.0863C391.801 66.0673 390.235 65.3929 388.578 65.1226C386.921 64.8523 385.222 64.9945 383.633 65.5365C382.239 64.7034 380.68 64.1859 379.065 64.0203C377.45 63.8546 375.819 64.045 374.285 64.5779C373.488 64.1568 372.603 63.9275 371.701 63.9081C370.799 63.8886 369.906 64.0796 369.091 64.466C366.864 65.2177 365.025 66.8173 363.971 68.9173C361.939 73.5696 364.964 78.7069 368.112 82.6646C369.519 84.1242 370.637 85.8359 371.41 87.7101C372.101 91.0071 372.572 94.3466 372.819 97.7063C370.953 97.4336 369.208 97.1495 367.719 96.8855C367.641 95.5481 352.869 81.7175 350.878 72.9927C350.045 68.4985 350.137 63.8816 351.149 59.4242C352.16 54.9668 354.07 50.7625 356.761 47.068V47.0422Z" fill="black"/>
<path d="M349.135 31.9461C350.287 33.2425 351.598 34.3873 353.039 35.3528C353.118 35.4226 353.22 35.4608 353.326 35.46C353.432 35.4593 353.534 35.4197 353.612 35.3487C353.69 35.2778 353.74 35.1805 353.751 35.0754C353.762 34.9703 353.735 34.8647 353.673 34.7788C352.947 33.4554 352.104 32.2 351.153 31.0277C349.444 28.8063 347.412 26.8523 345.126 25.2303C345.048 25.1458 344.94 25.0957 344.825 25.0912C344.71 25.0866 344.598 25.1279 344.513 25.2059C344.429 25.2839 344.379 25.3923 344.374 25.5072C344.37 25.6221 344.411 25.7341 344.489 25.8186C345.77 28.0513 347.331 30.1105 349.135 31.9461Z" fill="black"/>
<path d="M423.698 43.495C424.559 43.1506 425.747 42.6857 426.568 42.2466C428.953 40.8979 431.194 39.3103 433.258 37.5082C433.648 37.1494 433.999 36.7964 434.383 36.4262C434.48 36.3642 434.549 36.2661 434.573 36.1536C434.598 36.0411 434.577 35.9234 434.515 35.8264C434.484 35.7783 434.445 35.7368 434.398 35.7041C434.351 35.6715 434.298 35.6484 434.243 35.6361C434.13 35.6114 434.012 35.6323 433.915 35.6943C431.878 36.4204 429.954 37.4301 428.198 38.6935C426.369 39.8289 424.698 41.2001 423.227 42.7718C423.132 42.8342 423.064 42.9321 423.041 43.0441C423.017 43.156 423.039 43.2728 423.101 43.3687C423.164 43.4646 423.262 43.5318 423.373 43.5555C423.485 43.5792 423.602 43.5574 423.698 43.495Z" fill="black"/>
<path d="M431.249 74.7233C432.144 74.9156 433.384 75.1882 434.297 75.2801C436.998 75.4766 439.712 75.3958 442.396 75.039C442.913 74.9558 443.398 74.8553 443.914 74.752C444.017 74.7374 444.111 74.6869 444.18 74.6093C444.248 74.5318 444.287 74.4324 444.289 74.3288C444.291 74.2253 444.256 74.1244 444.191 74.0442C444.125 73.964 444.033 73.9097 443.932 73.891C441.859 73.3666 439.722 73.1405 437.586 73.2194C435.462 73.1547 433.339 73.3719 431.272 73.8652C431.158 73.8621 431.048 73.9044 430.965 73.9827C430.883 74.061 430.834 74.169 430.831 74.2828C430.828 74.3966 430.871 74.5069 430.949 74.5895C431.027 74.6721 431.135 74.7203 431.249 74.7233Z" fill="black"/>
<path d="M326.661 61.1799C328.932 62.328 331.344 63.1723 333.836 63.6912C335.492 64.13 337.199 64.35 338.913 64.3455C339.021 64.3656 339.133 64.3435 339.225 64.2838C339.317 64.224 339.383 64.1312 339.409 64.0243C339.436 63.9174 339.42 63.8046 339.365 63.709C339.311 63.6134 339.222 63.5423 339.116 63.5103C337.799 62.8085 336.418 62.232 334.992 61.7883C332.369 60.8912 329.624 60.3976 326.853 60.3246C326.739 60.2991 326.62 60.3197 326.522 60.3819C326.424 60.4441 326.355 60.5427 326.329 60.6561C326.304 60.7695 326.324 60.8884 326.386 60.9867C326.448 61.0849 326.547 61.1544 326.661 61.1799Z" fill="black"/>
<path d="M390.033 26.8343C390.506 25.4921 390.852 24.1084 391.066 22.7015C391.531 20.0967 391.579 17.4348 391.21 14.8148C391.209 14.7061 391.168 14.6015 391.094 14.5217C391.02 14.4419 390.919 14.3929 390.811 14.3842C390.702 14.3755 390.595 14.4079 390.509 14.4749C390.424 14.5419 390.366 14.6386 390.349 14.7459C389.576 17.0509 389.129 19.4523 389.02 21.8807C388.851 23.5069 388.906 25.1485 389.183 26.7597C389.189 26.8635 389.231 26.9619 389.303 27.0367C389.375 27.1115 389.472 27.1577 389.576 27.1668C389.679 27.1759 389.783 27.1472 389.867 27.0861C389.951 27.025 390.01 26.9356 390.033 26.8343Z" fill="black"/>
<path d="M448.07 173.85C448.317 173.854 448.559 173.777 448.757 173.63C448.956 173.484 449.101 173.275 449.169 173.038C449.272 172.808 449.291 172.548 449.223 172.305C449.155 172.062 449.004 171.851 448.796 171.707C448.588 171.564 448.337 171.497 448.085 171.52C447.834 171.542 447.598 171.652 447.419 171.83C447.231 171.97 447.093 172.165 447.022 172.388C446.951 172.611 446.951 172.85 447.023 173.073C447.095 173.295 447.234 173.49 447.422 173.629C447.61 173.769 447.836 173.846 448.07 173.85Z" fill="black"/>
<path d="M555.919 243.855C549.146 234.875 528.694 230.914 507.031 229.376C507.979 220.792 500.373 216.946 499.205 212.363C497.311 204.935 498.424 202.814 493.258 196.423C491.493 194.239 488.121 193.757 485.986 192.494C468.172 181.909 476.176 176.244 472.362 159.331C471.096 153.68 469.739 153.496 467.962 150.279C466.642 147.885 466.754 143.44 465.927 139.316C465.092 135.143 459.757 131.228 456.149 128.963C457.879 127.376 459.126 125.334 459.747 123.07C460.369 120.806 460.339 118.413 459.662 116.165C458.984 113.918 457.687 111.906 455.918 110.363C454.15 108.819 451.982 107.806 449.663 107.438C445.776 106.833 441.796 107.467 438.289 109.249C435.083 110.768 433.892 114.648 433.123 118.101C432.955 119.259 433.097 120.442 433.536 121.527C430.544 122.224 427.668 123.348 424.995 124.865C422.682 126.013 418.624 125.413 415.929 125.783C407.471 126.954 400.328 137.12 399.378 145.314C398.821 150.135 400.491 154.13 401.22 158.611C401.545 160.576 400.173 164.925 401.163 166.919C401.294 167.224 401.524 167.476 401.817 167.632C402.109 167.789 402.447 167.841 402.773 167.78C401.543 171.843 400.86 176.053 400.744 180.296C401.074 185.462 402.54 186.406 399.782 192.416C396.244 200.122 392.125 203.394 394.295 211.45C390.396 213.313 386.824 215.795 383.719 218.8C372.697 229.448 363.274 241.635 355.742 254.982C351.15 255.175 346.489 255.375 341.872 255.582C341.53 199.244 340.537 153.502 337.546 84.9692C337.535 84.7041 337.426 84.4527 337.239 84.2635C337.053 84.0743 336.804 83.9607 336.539 83.9446C269.275 79.6856 205.667 80.3026 151.866 81.2899C155.198 78.5052 158.125 75.2703 160.565 71.6783C160.704 71.4148 160.784 71.1239 160.797 70.8262C160.811 70.5286 160.759 70.2315 160.645 69.9562C159.739 67.538 159.024 65.0527 158.504 62.5229C149.98 70.0731 140.874 76.9402 131.271 83.0607C128.247 85.1418 124.838 86.5976 121.243 87.3427C107.719 89.6292 93.9987 90.5417 80.2911 90.0663C80.9916 93.6123 82.2756 97.0174 84.091 100.143C86.1 102.209 96.719 102.39 106.899 102.049C106.755 107.619 105.889 134.396 105.277 170.492C102.656 170.416 100.032 170.567 97.4365 170.943C97.3699 170.957 97.3083 170.989 97.258 171.035C97.2076 171.081 97.1702 171.139 97.1495 171.204C96.8309 172.183 96.2885 179.814 96.2282 180.905C93.6348 181.187 91.0821 181.765 88.6199 182.627C87.0637 180.227 85.3534 177.931 83.4998 175.753C82.2887 174.507 73.2539 181.476 71.8419 183.008C71.5549 183.33 71.3913 183.382 76.2071 190.6C75.6676 191.197 75.1309 191.859 74.6545 192.502C72.3161 191.24 69.8983 190.131 67.4163 189.182C67.2554 189.149 67.0887 189.158 66.9323 189.208C66.7759 189.258 66.6352 189.348 66.5237 189.469C63.8737 193.018 61.8205 196.976 60.4451 201.187C60.3102 201.738 60.2872 201.884 67.9071 205.897C67.6932 206.815 67.5293 207.744 67.4163 208.681C64.415 208.688 61.4173 208.89 58.4418 209.283C58.253 209.338 58.0831 209.445 57.9513 209.591C57.8195 209.737 57.731 209.916 57.6956 210.11C57.4501 214.559 57.9349 219.019 59.1306 223.312C59.3459 223.923 59.6214 224.075 69.5085 223.843C69.7037 224.357 69.8616 224.732 70.0538 225.195C67.0277 226.818 64.1121 228.64 61.3262 230.648C59.587 232.083 68.0822 243.359 69.4282 242.951C70.513 242.627 77.2059 238.824 78.1817 238.265C76.7744 240.469 75.5817 242.804 74.62 245.236C74.6273 245.474 74.6866 245.707 74.7937 245.92C74.9008 246.133 75.0531 246.319 75.2399 246.467C78.5471 248.934 82.1611 250.96 85.991 252.494C86.2106 252.595 86.451 252.644 86.6927 252.635C86.9345 252.627 87.1709 252.562 87.3829 252.445C89.0178 250.622 90.5081 248.674 91.84 246.619L92.7182 246.857C92.4769 249.448 92.5019 252.058 92.7929 254.644C92.9145 254.852 93.0803 255.031 93.2787 255.167C93.4771 255.304 93.7031 255.396 93.9408 255.436C97.4937 255.959 101.094 256.086 104.675 255.815C104.746 279.549 105.031 303.457 105.553 327.628L106.486 328.575C176.129 331.689 244.108 331.62 312.951 329.852C315.772 337.291 315.037 335.681 315.166 335.893C316.24 337.701 316.771 341.467 319.081 342.646C321.171 343.048 323.299 343.22 325.426 343.16C315.178 351.357 304.223 371.24 298.635 383.113C282.227 381.357 269.869 379.956 266.439 379.638C251.782 378.326 246.588 417.677 261.799 426.611C263.716 427.739 270.047 428.873 279.446 429.972C272.21 447.556 266.263 465.644 261.652 484.091C260.811 487.722 248.806 520.317 248.869 526.688C248.834 527.251 249.013 527.806 249.369 528.244C250.218 528.9 251.103 529.508 252.02 530.066C249.897 538.811 250.376 537.399 249.096 539.537C246.685 539.018 236.557 534.675 230.53 537.95C227.115 539.813 227.086 547.171 230.788 548.397C236.551 550.325 259.815 559.636 263.282 554.711C265.833 549.425 267.804 543.88 269.163 538.171C269.929 538.391 270.735 538.439 271.522 538.31C272.309 538.182 273.058 537.88 273.715 537.428C299.453 514.559 321.959 461.84 333.517 434.331C339.182 434.679 344.363 434.977 350.019 435.296C357.269 479.293 372.078 529.974 374.894 532.695C375.897 533.404 377.071 533.832 378.295 533.935C378.397 536.043 377.98 538.144 377.081 540.054C375.486 540.935 373.793 541.623 372.035 542.103C365.506 544.594 360.053 545.567 359.981 553.141C359.993 554.188 360.243 555.218 360.712 556.155C361.181 557.091 361.856 557.908 362.688 558.545C365.385 560.356 369.863 559.558 374.018 558.996C380.849 558.208 387.555 556.569 393.979 554.117C396.109 553.391 400.474 552.363 401.14 549.278C401.751 543.28 401.461 537.224 400.279 531.312C401.61 530.976 402.917 530.547 404.188 530.029C405.072 529.59 405.465 528.241 405.718 527.21C408.344 516.511 408.9 469.498 408.966 438.065C429.547 438.849 459.478 439.718 476.274 439.716C483.42 439.815 490.564 439.409 497.652 438.502C499.765 457.952 505.849 509.568 508.225 523.956C510.487 537.557 523.818 532.669 522.552 524.211C521.376 516.385 516.755 454.1 514.749 434.423C530.895 428.62 541.916 417.763 545.601 400.864C553.373 364.984 565.005 255.921 555.919 243.855ZM104.655 232.605C102.227 232.85 99.7759 232.608 97.4433 231.895C95.1106 231.181 92.9437 230.009 91.0693 228.448C89.1949 226.887 87.6507 224.967 86.5269 222.802C85.4031 220.637 84.7223 218.27 84.5244 215.838C83.5084 201.744 92.8129 194.887 104.901 196.693C104.771 208.647 104.689 220.618 104.655 232.605ZM104.924 195.008C92.1155 193.174 81.7434 200.53 82.9947 215.959C84.1168 228.484 94.9396 233.713 104.655 233.256C104.637 240.198 104.637 247.153 104.655 254.121C101.196 254.401 97.7171 254.285 94.2853 253.774C94.2013 251.275 94.2491 248.774 94.4288 246.28C94.4386 246.084 94.3791 245.89 94.2605 245.732C94.142 245.575 93.972 245.464 93.7801 245.419L91.7223 244.845C90.8384 244.558 90.9044 245.181 88.1549 248.909C87.6685 249.606 87.1454 250.277 86.5879 250.918C82.933 249.473 79.4873 247.547 76.342 245.19C76.6978 244.37 77.1091 243.575 77.5732 242.811C80.6269 237.398 80.8852 238.572 78.8734 236.646C78.7444 236.52 78.578 236.44 78.3994 236.417C78.2208 236.394 78.0396 236.43 77.8832 236.52C75.9259 237.65 71.1272 240.357 69.3679 241.201C66.6951 238.33 64.4339 235.102 62.6492 231.609C65.4719 229.65 68.3999 227.846 71.42 226.208C71.5915 226.113 71.7209 225.957 71.7826 225.77C71.8443 225.584 71.8337 225.382 71.7529 225.203C71.4085 224.44 71.0842 223.662 70.7513 222.778C70.4643 222.017 70.3782 222.353 63.8977 222.388C62.3048 222.388 61.0277 222.388 60.3819 222.359C59.3769 218.526 58.9246 214.57 59.0388 210.609C62.0204 210.252 65.0191 210.054 68.0219 210.018C68.1874 210.014 68.3458 209.95 68.467 209.838C68.5881 209.725 68.6637 209.571 68.6791 209.407C68.9948 205.908 69.7295 205.369 68.9661 204.967C67.2039 204.06 63.0195 201.859 61.7739 201.072C63.0625 197.232 64.9179 193.607 67.2786 190.315C68.2375 190.651 69.1791 191.034 70.0998 191.463C74.5684 193.501 74.8381 194.046 75.2658 193.472C75.8817 192.596 76.5527 191.759 77.2748 190.967C77.7311 190.47 74.2469 186.013 72.7976 183.39C75.8157 180.539 79.2623 178.179 83.0119 176.396C84.871 178.576 86.5961 180.866 88.1779 183.255C88.5826 183.852 90.6346 182.084 96.6013 181.533C97.1753 181.482 97.2729 174.599 97.8555 171.64C100.32 171.337 102.804 171.227 105.286 171.31C105.137 179.212 105.016 187.109 104.924 194.999V195.008ZM506.13 238.649C505.999 235.925 506.247 233.195 506.865 230.538C515.178 231.08 523.445 232.179 531.61 233.83C530.393 233.893 529.217 234.292 528.213 234.981C527.208 235.671 526.414 236.626 525.919 237.739C518.365 255.794 515.352 325.802 509.511 351.919C506.44 365.675 503.398 388.851 491.404 396.057C489.381 397.277 476.629 396.726 458.075 395.386C494.346 374.412 491.043 330.004 486.456 319.574C494.412 306.964 500.99 281.576 498.568 256.36C501.142 254.219 503.17 251.496 504.485 248.417C505.8 245.337 506.364 241.989 506.13 238.649ZM483.624 219.096C503.751 243.365 499.122 298.167 483.733 319.879C479.97 325.191 460.233 326.813 439.664 330.136C437.029 330.403 434.346 330.653 431.628 330.885C431.083 329.163 429.737 325.36 426.749 316.639C447.433 304.585 454.332 309.438 454.427 306.642C455.406 278.752 459.2 232.361 483.624 219.096ZM396.72 529.943C393.664 530.6 390.016 531.225 386.644 531.61C380.304 510.165 362.349 404.796 368.901 385.762C373.249 373.114 416.934 346.443 429.628 339.624C443.208 338.89 456.722 337.233 470.077 334.662C470.938 334.453 471.799 334.295 472.015 333.514C472.618 331.453 472.618 329.262 472.015 327.2C476.411 326.092 475.401 326.198 475.688 326.198C479.089 361.769 432.394 362.934 399.366 383.682C381.676 394.817 396.648 528.863 396.72 529.943ZM408.2 157.661C409.207 154.575 411.779 152.744 412.548 149.231C412.981 151.593 414.136 153.763 415.854 155.441C417.572 157.119 419.768 158.222 422.14 158.599C423.678 158.992 427.4 158.329 429.602 158.74C433.247 162.413 433.821 165.14 440.255 166.446C440.806 167.157 441.041 169.115 441.923 170.435C442.108 170.806 442.379 171.126 442.714 171.371C443.049 171.615 443.437 171.776 443.846 171.84C444.256 171.904 444.674 171.87 445.068 171.739C445.461 171.608 445.817 171.386 446.107 171.089C447.235 169.654 447.083 165.791 448.305 165.312C453.758 163.096 455.067 170.154 453.095 173.658C451.826 175.651 450.005 177.233 447.855 178.213C447.689 178.284 447.544 178.395 447.434 178.537C447.323 178.679 447.249 178.847 447.221 179.025C447.267 178.738 444.907 199.402 448.765 205.194C453.388 212.125 465.066 209.556 471.596 211.091C448.544 229.428 438.975 245.615 425.503 247.451C417.657 241.424 413.2 219.291 412.428 207.794C423.457 205.879 423.842 207.148 424.195 205.963C424.889 203.005 425.413 200.009 425.764 196.991C425.879 195.886 426.132 194.256 425.107 194.012C422.367 193.52 419.764 192.445 417.475 190.861C415.185 189.277 413.262 187.219 411.836 184.828C409.916 180.712 410.255 180.319 407.508 170.914C407.202 168.694 406.675 166.509 405.936 164.394C406.964 162.251 407.726 159.989 408.203 157.661H408.2ZM385.074 220.169C388.891 216.469 393.419 213.583 398.385 211.685C398.873 215.227 399.148 234.622 397.524 236.192C392.828 241.503 388.908 247.451 385.88 253.86C377.904 254.107 368.23 254.469 358.107 254.885C365.433 242.111 374.511 230.426 385.077 220.169H385.074ZM107.883 102.014C109.049 101.971 129.431 101.047 130.198 100.292C131.346 99.1441 141.81 90.5542 150.176 82.8712C209.78 82.2972 272.096 82.0103 335.44 86.0282L336.456 109.958C280.454 114.585 161.931 114.209 107.665 110.771C107.705 109.005 107.826 103.739 107.883 102.014ZM107.464 326.669C105.682 255.78 106.006 182.44 107.645 111.64C163.424 115.724 276.616 117.01 336.628 112.108C338.448 159.707 339.449 207.696 339.725 255.677C313.743 256.848 289.675 258.145 288.033 258.601C287.796 258.656 287.589 258.799 287.454 259.001C287.319 259.203 287.267 259.449 287.307 259.689C287.511 261.259 304.975 308.746 312.13 327.728C243.663 329.493 175.403 329.585 107.464 326.669ZM315.884 334.978C314.05 329.582 291.802 268.56 289.299 260.232C298.136 259.302 398.431 255.045 405.192 255.726C408.39 263.322 425.644 322.453 429.013 331.476C384.365 334.771 316.182 334.972 315.884 334.978ZM262.869 424.76C249.305 416.807 254.371 380.703 266.236 381.759C277.429 382.755 287.043 384.198 297.464 385.599C292.496 396.447 288.019 408.1 280.244 427.871C277.294 427.535 265.343 426.209 262.869 424.76ZM264.448 546.669C261.459 545.859 258.431 545.203 255.375 544.703C256.265 542.579 256.922 541.156 254.948 539.339C253.936 538.585 252.857 537.924 251.725 537.367C252.227 535.419 252.655 533.016 253.082 530.749C257.498 533.74 262.312 536.095 267.384 537.746C266.52 540.464 265.475 543.753 264.448 546.666V546.669ZM272.346 535.904C271.703 536.478 270.397 536.446 268.732 536.033C292.077 478.854 318.564 411.963 331.706 388.515C336.333 380.771 343.7 375.049 352.347 372.48C346.076 385.22 345.264 402.681 347.52 414.56C344.89 414.588 342.279 415.005 339.771 415.797C335.991 417.637 307.506 504.586 272.346 535.904ZM334.381 432.21C337.492 424.8 339.708 419.531 340.853 417.654C342.979 417.063 345.17 416.738 347.376 416.687C347.976 421.959 348.748 427.478 349.649 433.12C344.259 432.813 339.053 432.509 334.381 432.222V432.21ZM376.386 531.165C372.56 524.533 354.491 461.077 349.44 415.846C349.247 414.124 346.857 417.045 348.338 397.716C349.414 383.791 353.423 369.093 364.479 360.455C368.161 357.479 377.244 351.331 381.383 348.805C381.473 348.745 381.537 348.652 381.562 348.547C381.587 348.441 381.571 348.33 381.517 348.235C381.463 348.141 381.376 348.07 381.272 348.038C381.168 348.005 381.056 348.013 380.958 348.059C374.878 351.359 368.976 354.976 363.276 358.896C358.922 362.258 355.37 366.545 352.875 371.447C343.531 373.742 335.447 379.585 330.337 387.737C312.322 418.653 280.479 502.508 267.894 535.806C261.861 533.602 256.14 530.622 250.875 526.941C250.815 520.199 262.499 488.77 263.472 484.525C269.298 459.082 279.257 435.175 288.622 410.97C296.038 391.775 310.124 356.44 327.289 343.212C334.464 343.347 345.78 343.258 359.037 342.942C341.86 346.756 329.605 353.142 319.755 369.989C301.008 402.46 260.521 512.011 255.843 529.739C255.828 529.794 255.824 529.851 255.831 529.908C255.838 529.965 255.857 530.019 255.885 530.069C255.913 530.118 255.951 530.162 255.996 530.197C256.041 530.232 256.092 530.258 256.148 530.273C256.203 530.288 256.26 530.292 256.317 530.285C256.373 530.278 256.428 530.259 256.477 530.231C256.527 530.203 256.571 530.165 256.605 530.12C256.64 530.075 256.666 530.023 256.681 529.968C259.732 519.189 303.973 401.659 321.466 370.97C331.629 352.912 344.968 346.877 364.516 342.804C384.009 342.27 406.84 341.283 426.812 339.845C403.743 351.939 370.847 373.651 366.884 385.079C360.174 404.509 377.038 503.47 385.762 531.716C381.302 532.161 377.477 532.152 376.386 531.165ZM391.471 542.177C385.656 543.429 388.813 542.08 386.256 539.643C385.068 538.515 381.188 538.931 378.82 539.224C379.286 537.535 379.467 535.781 379.354 534.032C385.799 534.096 392.226 533.324 398.474 531.736C398.881 534.46 399.194 537.379 399.335 540.183C398.161 540.513 395.983 541.207 391.468 542.175L391.471 542.177ZM406.909 410.553C406.811 403.166 407.847 516.118 403.106 528.152C401.313 528.845 399.464 529.381 397.578 529.756C396.462 513.569 386.064 394.625 400.52 385.487C432.377 365.276 480.808 362.843 476.555 326.112C476.5 325.604 483.331 324.212 485.524 320.981C488.285 328.626 490.176 352.046 479.21 371.702C471.748 385.062 458.362 397.001 435.273 401.984C431.599 402.773 411.251 408.562 407.617 409.598C407.412 409.658 407.232 409.784 407.104 409.956C406.976 410.128 406.907 410.336 406.909 410.551V410.553ZM520.4 524.492C521.261 530.195 512.117 534.342 510.312 523.571C508.016 509.967 501.662 459.628 498.8 438.295C503.871 437.559 508.866 436.37 513.724 434.742C515.082 453.546 518.454 511.385 520.4 524.504V524.492ZM543.621 400.402C542.53 405.879 540.327 411.074 537.147 415.665C533.967 420.256 529.879 424.146 525.135 427.093C508.412 437.732 485.816 437.583 476.251 437.577C459.8 437.577 435.425 436.949 408.949 435.921C408.966 424.49 408.918 415.384 408.892 411.28C443.788 401.206 444.583 402.256 454.482 397.308C475.327 398.643 489.74 399.053 492.282 397.504C504.91 389.844 507.815 366.571 510.952 352.229C516.646 326.112 519.258 255.918 526.722 238.064C528.025 234.953 531.579 234.203 535.777 234.8C544.58 237.096 551.422 240.291 554.719 244.728C560 251.808 556.513 297.955 555.83 306.809C553.21 340.956 548.095 380.1 543.621 400.414V400.402Z" fill="black"/>
<path d="M208.884 413.32C210.669 403.149 192.56 398.144 182.434 395.851C182.305 391.566 185.138 389.672 187.081 387.691C190.238 387.806 194.279 387.955 195.117 387.978C195.319 387.979 195.518 387.923 195.69 387.816C195.862 387.71 196.001 387.557 196.091 387.376C196.18 387.194 196.217 386.991 196.197 386.79C196.177 386.588 196.101 386.397 195.978 386.236C191.076 379.876 192.003 369.487 197.987 364.86C198.161 364.724 198.288 364.539 198.353 364.328C198.417 364.117 198.415 363.891 198.347 363.681C198.279 363.472 198.149 363.288 197.973 363.155C197.797 363.022 197.585 362.946 197.364 362.938C191.911 362.731 185.454 362.507 178.368 362.272C179.074 358.97 179.202 355.572 178.746 352.227C178.714 351.993 178.622 351.772 178.48 351.584C178.338 351.396 178.15 351.248 177.934 351.153C171.764 347.945 88.4304 345.037 86.9725 347.606C86.0956 351.539 85.9256 355.596 86.4702 359.588C72.0657 359.218 62.4168 359.014 62.3249 359.083C60.4106 360.573 58.5336 365.618 58.0888 370.824C57.6813 375.566 58.482 380.407 61.2946 382.878C61.3434 382.921 66.3027 383.134 74.2842 383.452C72.6583 385.562 71.6775 388.096 71.4601 390.751C41.4026 393.104 17.9117 398.431 16.2729 406.404C13.9769 409.575 14.9957 419.413 14.9556 421.902C14.7547 434.613 38.5498 443.633 69.5229 448.372C61.8313 474.46 49.8318 522.34 49.1459 529.283C49.0887 529.519 49.088 529.765 49.1438 530.001C49.1997 530.238 49.3105 530.458 49.4673 530.643C50.8191 531.995 57.9367 534.856 59.409 532.351C65.0916 522.67 79.0025 477.459 86.9323 450.516C91.2373 450.929 95.6198 451.268 100.034 451.529C99.434 477.514 98.1827 524.022 100.358 537.752C101.219 543.222 114.476 543.274 115.34 537.827C117.636 523.046 117.719 479.494 117.948 452.172C123.591 452.24 129.205 452.172 134.712 451.999C142.797 479.368 156.082 522.208 161.567 531.562C162.247 532.71 163.863 532.678 165.191 532.46C166.813 532.193 171.485 530.738 171.818 529.283C172.315 527.004 160.522 479.112 152.411 450.917C184.555 447.987 209.435 439.988 208.681 426.267C209.191 421.97 209.259 417.632 208.884 413.32ZM183.054 403.637C182.891 403.637 159.176 402.693 132.166 401.823C130.358 396.655 130.662 390.983 133.013 386.038C149.527 386.701 167.048 387.367 183.591 387.927C179.056 392.665 179.464 398.112 183.063 403.637H183.054ZM187.793 407.368C188.235 409.854 187.879 412.415 186.777 414.687C184.257 414.882 156.811 414.87 125.89 414.727C125.436 410.918 125.451 407.113 125.364 403.924C132.195 404.174 181.068 405.907 187.801 407.374L187.793 407.368ZM132.743 383.719L121.82 383.349C118.7 376.033 117.515 369.171 122.756 362.496C126.708 362.639 130.76 362.783 134.787 362.903C132.03 369.479 131.317 376.733 132.743 383.719ZM194.537 365.024C192.237 367.927 190.864 371.455 190.598 375.149C190.332 378.843 191.186 382.532 193.048 385.734C129.647 383.269 134.592 384.471 134.109 383.019C132.609 376.311 133.178 369.306 135.742 362.929C147.369 363.291 187.434 364.746 194.537 365.018V365.024ZM176.671 352.97C176.925 355.809 176.808 358.668 176.324 361.477C169.984 361.827 151.163 361.038 141.256 360.728C140.931 356.997 140.86 352.74 140.759 349.638C158.045 350.645 173.601 351.914 176.671 352.959V352.97ZM139.846 349.566C139.786 352.772 139.614 356.819 139.789 361.012C137.275 360.957 90.1668 359.829 87.624 359.356C87.0271 355.621 87.0504 351.813 87.6929 348.085C87.5034 348.418 86.3497 346.464 139.846 349.566ZM61.9518 381.765C57.0097 377.242 59.277 362.946 62.7525 359.861C132.086 362.917 95.9872 361.393 112.088 362.071C107.338 367.825 107.283 375.623 109.846 382.944C89.8654 382.284 77.49 381.963 61.9518 381.765ZM75.4408 383.553C88.9901 384.19 109.542 385.091 132.046 385.998C129.609 390.9 129.151 396.552 130.766 401.783C111.479 401.166 90.7006 400.592 75.725 400.423C70.8058 396.034 71.9509 386.589 75.4523 383.553H75.4408ZM124.466 403.898C124.446 406.894 124.294 410.849 124.613 414.724C83.7753 414.532 37.4248 414.115 34.5519 413.656C33.2317 412.287 33.9263 403.287 34.7901 402.406C34.4945 402.661 31.0448 400.592 124.478 403.898H124.466ZM57.5952 531.148C55.3697 531.13 53.1895 530.517 51.2812 529.372C51.2525 529.659 50.9942 527.727 61.1425 486.442C62.3909 481.368 66.9628 462.621 70.7828 448.558C75.5815 449.27 80.5408 449.878 85.6092 450.384C77.1427 477.054 61.9518 523.629 57.6066 531.148H57.5952ZM113.193 537.485C112.722 540.496 102.938 540.378 102.459 537.408C100.49 525.196 101.277 468.192 101.311 451.595C106.388 451.882 111.505 452.06 116.605 452.143C115.747 481.411 115.225 524.717 113.204 537.485H113.193ZM169.666 528.588C167.758 529.736 165.578 530.352 163.352 530.37C158.186 521.413 140.016 464.263 136.087 451.956C141.184 451.764 146.183 451.46 151.011 451.044C158.269 478.042 169.201 524.008 169.677 528.577L169.666 528.588ZM17.1798 407.253C17.2516 399.43 40.8544 394.522 71.3712 392.559C71.2982 395.653 72.4183 398.657 74.4995 400.948C52.036 400.741 35.0312 400.948 34.1903 401.809C32.9849 403.023 31.9976 412.924 33.9607 414.549C35.8463 416.027 185.712 417.869 187.93 416.558C190.476 415.37 190.026 407.865 190.051 408.235C189.868 405.617 189.882 405.396 186.274 404.9C184.97 402.814 183.831 400.629 182.868 398.365C197.023 401.559 206.198 405.884 206.528 411.343C208.342 441.765 16.8871 438.536 17.1798 407.253Z" fill="black"/>
<path d="M59.7477 87.5351C60.8296 88.1091 59.1363 86.08 62.2044 97.9503C63.018 101.391 64.0867 104.767 65.4016 108.05C58.548 111.643 63.4901 125.132 71.3597 119.335C77.1915 116.092 76.1497 103.337 66.3171 107.611C65.4793 100.884 63.7977 94.2894 61.3118 87.9828C67.5209 88.7382 73.7724 89.091 80.0271 89.039C94.3626 88.7093 108.652 87.2835 122.77 84.7741C128.745 83.3678 152.701 65.7346 157.127 62.2791C159.931 60.3631 162.429 58.0341 164.537 55.371C164.993 54.3177 164.31 53.5112 163.32 52.9832C156.317 49.2349 112.369 44.6142 104.465 43.8221C101.612 42.9382 61.1568 80.2022 59.0675 85.6093C58.9795 85.7793 58.9273 85.9655 58.9141 86.1564C58.9009 86.3473 58.927 86.539 58.9908 86.7194C59.0545 86.8999 59.1545 87.0654 59.2847 87.2056C59.4149 87.3459 59.5725 87.4581 59.7477 87.5351ZM66.4061 109.956C74.5511 105.585 74.3961 116.003 70.8919 118.611C64.331 122.262 62.2933 112.071 66.4061 109.956ZM115.406 61.0536C118.85 63.6366 113.164 73.5783 106.463 68.1138C99.1269 61.8141 109.852 55.3595 115.406 61.0536Z" fill="black"/>
</svg>
